<?xml version="1.0" encoding="UTF-8" standalone="no"?>
<svg
   xmlns:dc="http://purl.org/dc/elements/1.1/"
   xmlns:cc="http://creativecommons.org/ns#"
   xmlns:rdf="http://www.w3.org/1999/02/22-rdf-syntax-ns#"
   xmlns:svg="http://www.w3.org/2000/svg"
   xmlns="http://www.w3.org/2000/svg"
   xmlns:sodipodi="http://sodipodi.sourceforge.net/DTD/sodipodi-0.dtd"
   xmlns:inkscape="http://www.inkscape.org/namespaces/inkscape"
   width="120"
   height="120"
   viewBox="0 0 31.75 31.750002"
   version="1.1"
   id="svg8"
   inkscape:version="1.0 (4035a4fb49, 2020-05-01)"
   sodipodi:docname="czarek.svg"
   inkscape:export-filename="C:\Users\olaka\OneDrive\Obrazy\Inkscape\kaczki_emotki\kaczki_wszystkie.png"
   inkscape:export-xdpi="96"
   inkscape:export-ydpi="96">
  <defs
     id="defs2">
    <marker
       inkscape:stockid="Arrow1Mstart"
       orient="auto"
       refY="0"
       refX="0"
       id="Arrow1Mstart"
       style="overflow:visible"
       inkscape:isstock="true">
      <path
         id="path1005"
         d="M 0,0 5,-5 -12.5,0 5,5 Z"
         style="fill-rule:evenodd;stroke:#000000;stroke-width:1pt"
         transform="matrix(0.4,0,0,0.4,4,0)" />
    </marker>
    <marker
       inkscape:stockid="Arrow1Lend"
       orient="auto"
       refY="0"
       refX="0"
       id="Arrow1Lend"
       style="overflow:visible"
       inkscape:isstock="true">
      <path
         id="path1002"
         d="M 0,0 5,-5 -12.5,0 5,5 Z"
         style="fill-rule:evenodd;stroke:#000000;stroke-width:1pt"
         transform="matrix(-0.8,0,0,-0.8,-10,0)" />
    </marker>
    <marker
       inkscape:stockid="Arrow1Lstart"
       orient="auto"
       refY="0"
       refX="0"
       id="marker1271"
       style="overflow:visible"
       inkscape:isstock="true">
      <path
         id="path1269"
         d="M 0,0 5,-5 -12.5,0 5,5 Z"
         style="fill-rule:evenodd;stroke:#000000;stroke-width:1pt"
         transform="matrix(0.8,0,0,0.8,10,0)" />
    </marker>
    <marker
       inkscape:stockid="Arrow1Lstart"
       orient="auto"
       refY="0"
       refX="0"
       id="Arrow1Lstart"
       style="overflow:visible"
       inkscape:isstock="true">
      <path
         id="path999"
         d="M 0,0 5,-5 -12.5,0 5,5 Z"
         style="fill-rule:evenodd;stroke:#000000;stroke-width:1pt"
         transform="matrix(0.8,0,0,0.8,10,0)" />
    </marker>
    <pattern
       y="0"
       x="0"
       height="6"
       width="6"
       patternUnits="userSpaceOnUse"
       id="EMFhbasepattern" />
  </defs>
  <sodipodi:namedview
     id="base"
     pagecolor="#ffffff"
     bordercolor="#666666"
     borderopacity="1.0"
     inkscape:pageopacity="0.0"
     inkscape:pageshadow="2"
     inkscape:zoom="2.8284271"
     inkscape:cx="123.4009"
     inkscape:cy="106.21424"
     inkscape:document-units="mm"
     inkscape:current-layer="g904"
     inkscape:document-rotation="0"
     showgrid="true"
     width="1920mm"
     units="px"
     inkscape:window-width="1898"
     inkscape:window-height="1020"
     inkscape:window-x="0"
     inkscape:window-y="0"
     inkscape:window-maximized="0">
    <inkscape:grid
       type="xygrid"
       id="grid847" />
  </sodipodi:namedview>
  <metadata
     id="metadata5">
    <rdf:RDF>
      <cc:Work
         rdf:about="">
        <dc:format>image/svg+xml</dc:format>
        <dc:type
           rdf:resource="http://purl.org/dc/dcmitype/StillImage" />
        <dc:title />
      </cc:Work>
    </rdf:RDF>
  </metadata>
  <g
     inkscape:label="Warstwa 1"
     inkscape:groupmode="layer"
     id="layer1">
    <g
       id="g904">
      <g
         transform="rotate(180,15.907377,15.875)"
         id="g926">
        <rect
           ry="0.38033855"
           y="5.2916598"
           x="7.1437516"
           height="1.8520839"
           width="17.197916"
           id="rect999-1"
           style="fill:#666666;fill-opacity:1;fill-rule:evenodd;stroke:#000000;stroke-width:0.264999;stroke-linecap:round;stroke-linejoin:round;stroke-miterlimit:4;stroke-dasharray:none;stroke-dashoffset:0;stroke-opacity:1" />
        <rect
           style="fill:#666666;fill-opacity:1;fill-rule:evenodd;stroke:#000000;stroke-width:0.264999;stroke-linecap:round;stroke-linejoin:round;stroke-miterlimit:4;stroke-dasharray:none;stroke-dashoffset:0;stroke-opacity:1"
           id="rect999"
           width="17.197916"
           height="1.8520839"
           x="7.1437516"
           y="29.104166"
           ry="0.38033855" />
        <rect
           style="fill:#000000;fill-opacity:1;fill-rule:evenodd;stroke:none;stroke-width:0.264999;stroke-linecap:round;stroke-linejoin:round;stroke-miterlimit:4;stroke-dasharray:none;stroke-dashoffset:0;stroke-opacity:1"
           id="rect902"
           width="23.8125"
           height="1.3229166"
           x="3.9687502"
           y="23.018751"
           ry="0.52916664" />
        <rect
           style="fill:#cccccc;fill-rule:evenodd;stroke:#000000;stroke-width:0.265;stroke-linecap:round;stroke-linejoin:round;stroke-miterlimit:4;stroke-dasharray:none;stroke-dashoffset:0"
           id="rect871"
           width="18.520834"
           height="23.8125"
           x="6.6145821"
           y="6.3499975"
           ry="1.3229167" />
        <rect
           style="fill:#cccccc;fill-opacity:1;fill-rule:evenodd;stroke:#000000;stroke-width:0.264999;stroke-linecap:round;stroke-linejoin:round;stroke-miterlimit:4;stroke-dasharray:none;stroke-dashoffset:0;stroke-opacity:1"
           id="rect963"
           width="14.2875"
           height="7.6729164"
           x="8.7312508"
           y="8.9958353"
           ry="0.38033855" />
        <rect
           style="fill:#006b6d;fill-opacity:1;fill-rule:evenodd;stroke:#43a877;stroke-width:0.865;stroke-linecap:round;stroke-linejoin:round;stroke-miterlimit:4;stroke-dasharray:none;stroke-dashoffset:0;stroke-opacity:1"
           id="rect873"
           width="13.229166"
           height="6.614583"
           x="9.260416"
           y="9.5249977"
           ry="0.028072556" />
        <rect
           style="fill:#0079ff;fill-opacity:1;fill-rule:evenodd;stroke:#000000;stroke-width:0.264999;stroke-linecap:round;stroke-linejoin:round;stroke-miterlimit:4;stroke-dasharray:none;stroke-dashoffset:0;stroke-opacity:1"
           id="rect875"
           width="5.2916665"
           height="6.6145844"
           x="18.520834"
           y="22.225004"
           ry="0.52916604" />
        <path
           style="fill:#000000;fill-opacity:1;fill-rule:evenodd;stroke:none;stroke-width:0.184534;stroke-linecap:round;stroke-linejoin:round;stroke-miterlimit:4;stroke-dasharray:none;stroke-dashoffset:0;stroke-opacity:1"
           id="path877"
           d="m 20.567226,23.23263 c -0.0027,0.02088 -0.0036,0.0423 -0.0083,0.06264 -0.02527,0.110226 -0.0675,0.21765 -0.102821,0.322843 -0.03637,0.108303 -0.06006,0.186513 -0.09422,0.296207 -0.09987,0.312479 -0.189398,0.629249 -0.292491,0.940053 -0.0754,0.237075 -0.151619,0.474369 -0.211294,0.71852 -0.01257,0.07008 -0.06911,0.174846 -0.06143,0.249024 0.008,0.07673 0.05041,0.164027 0.100387,0.208028 0.03259,0.0287 0.07308,0.03954 0.109616,0.05931 0.192862,0.05255 0.391058,0.0574 0.587549,0.06316 0.119283,0.0042 0.234558,-0.03079 0.350916,-0.0565 0.389259,-0.134613 0.798405,-0.36816 1.040604,-0.782057 0.09573,-0.175736 0.169098,-0.321966 0.216321,-0.528784 0.0265,-0.05003 0.02791,-0.111282 0.04546,-0.165215 0.0075,-0.02295 0.02122,-0.04204 0.02911,-0.06477 0.03007,-0.08653 0.04325,-0.18356 0.05964,-0.275094 0.01358,-0.02269 0.0399,-0.177956 0.05736,-0.186904 0.01,-0.0051 0.03593,0.01863 0.02606,0.02409 -0.925286,0.512022 -0.648047,0.161379 -0.876389,0.452506 -0.01776,0.234331 -0.05878,0.466001 -0.08836,0.698968 -0.03846,0.295155 -0.06731,0.591508 -0.08086,0.890105 -0.01624,0.195222 -0.05304,0.385922 -0.07261,0.580533 -0.01805,0.21466 -0.04607,0.428216 -0.08422,0.638623 -0.02676,0.111893 -0.03872,0.229188 -0.06395,0.341464 -0.01605,0.07141 -0.04,0.140252 -0.05636,0.211841 0,0 0.863472,-0.414552 0.863472,-0.414552 v 0 c 0.03946,-0.183408 0.06171,-0.371578 0.09811,-0.555989 0.03732,-0.218371 0.06649,-0.439504 0.08959,-0.660945 0.02398,-0.197175 0.05454,-0.393723 0.05796,-0.593826 0.01152,-0.287174 0.03218,-0.574217 0.07645,-0.856677 0.0405,-0.248452 0.08854,-0.496141 0.114526,-0.747633 -0.03612,-0.458394 0.0079,-0.137527 -0.87946,0.338303 -0.01352,0.0073 0.0057,0.03671 0.0048,0.05519 -0.0032,0.06817 -0.03747,0.131535 -0.04075,0.199868 -0.03891,0.16437 -0.09882,0.319007 -0.138887,0.48317 -0.05975,0.160326 -0.139706,0.311525 -0.241764,0.43419 -0.01844,0.01629 -0.03627,0.03374 -0.05532,0.04887 -0.01827,0.0145 -0.07521,0.05353 -0.05652,0.03989 0.240547,-0.175623 0.479737,-0.354253 0.72212,-0.525831 0.01251,-0.0089 -0.01952,0.02703 -0.03152,0.03696 -0.02661,0.02205 -0.06141,0.02613 -0.08381,0.05783 -0.103984,0.05564 -0.21996,0.07675 -0.330424,0.103373 -0.182111,0.03342 -0.369034,0.0099 -0.551709,-0.007 -0.01797,0.0019 -0.03683,-0.0016 -0.05392,0.0056 -0.0069,0.003 -0.007,0.03558 -0.0038,0.02724 0.02643,-0.07092 0.03049,-0.156194 0.05655,-0.227471 0.06208,-0.234137 0.125167,-0.467984 0.20111,-0.695747 0.09746,-0.312878 0.180723,-0.63245 0.290339,-0.939335 0.08104,-0.245688 0.180048,-0.485159 0.227061,-0.745848 0,0 -0.863913,0.441755 -0.863913,0.441755 z" />
        <path
           style="fill:#000000;fill-opacity:1;fill-rule:evenodd;stroke:none;stroke-width:0.00828125;stroke-linecap:round;stroke-linejoin:round;stroke-miterlimit:4;stroke-dasharray:none;stroke-dashoffset:0;stroke-opacity:1"
           d="m 21.395535,25.868142 c 0,-0.01812 0.03217,-0.341204 0.04212,-0.423054 l 0.0091,-0.07469 0.0464,-0.03279 c 0.0425,-0.03004 0.06052,-0.04152 0.142353,-0.09067 0.03697,-0.0222 0.08772,-0.06782 0.08192,-0.07363 -0.0026,-0.0026 -0.04574,0.02429 -0.09593,0.05968 -0.0795,0.05606 -0.153818,0.09295 -0.164908,0.08186 -0.0019,-0.0019 0.0098,-0.09985 0.02604,-0.217614 0.04231,-0.306698 0.05153,-0.379053 0.05814,-0.456646 0.0058,-0.06795 0.0065,-0.06966 0.05068,-0.123565 0.05728,-0.06988 0.06225,-0.07306 0.138577,-0.08883 0.122931,-0.02539 0.309961,-0.103229 0.531632,-0.22125 0.05571,-0.02966 0.101241,-0.04964 0.101187,-0.04441 -5.4e-5,0.0052 -0.0057,0.02998 -0.01255,0.055 -0.0069,0.02501 -0.02351,0.100324 -0.03701,0.167361 -0.01351,0.06704 -0.03762,0.155324 -0.05359,0.196193 -0.01597,0.04087 -0.02904,0.07916 -0.02904,0.08508 0,0.03096 -0.07348,0.269408 -0.11252,0.365109 -0.146036,0.358034 -0.347892,0.60956 -0.645291,0.804074 -0.07324,0.04791 -0.07728,0.04962 -0.07728,0.03279 z"
           id="path879" />
        <path
           style="fill:#000000;fill-opacity:1;fill-rule:evenodd;stroke:none;stroke-width:0.00828125;stroke-linecap:round;stroke-linejoin:round;stroke-miterlimit:4;stroke-dasharray:none;stroke-dashoffset:0;stroke-opacity:1"
           d="m 21.130952,25.588037 c 0,-0.0016 0.02363,-0.03881 0.05252,-0.08263 0.02889,-0.04381 0.05689,-0.09013 0.06223,-0.102927 0.0089,-0.02128 0.01762,-0.02514 0.102507,-0.04525 0.05104,-0.01209 0.09403,-0.02078 0.09554,-0.01931 0.01009,0.0099 -0.03117,0.04676 -0.148545,0.132881 -0.172459,0.126541 -0.16425,0.120682 -0.16425,0.117231 z"
           id="path881" />
        <rect
           ry="0.52916664"
           y="17.991667"
           x="25.929169"
           height="10.883001"
           width="5.0270863"
           id="rect885-5"
           style="fill:#333333;fill-opacity:1;fill-rule:evenodd;stroke:#000000;stroke-width:0.264999;stroke-linecap:round;stroke-linejoin:round;stroke-miterlimit:4;stroke-dasharray:none;stroke-dashoffset:0;stroke-opacity:1" />
        <rect
           style="fill:#cccccc;fill-opacity:1;fill-rule:evenodd;stroke:#000000;stroke-width:0.264999;stroke-linecap:round;stroke-linejoin:round;stroke-miterlimit:4;stroke-dasharray:none;stroke-dashoffset:0;stroke-opacity:1"
           id="rect883"
           width="15.875"
           height="5.5562501"
           x="7.9375"
           y="0.79374957"
           ry="0.52916664" />
        <rect
           ry="0.52916664"
           y="6.3499994"
           x="8.7312498"
           height="1.322917"
           width="14.287499"
           id="rect904-9"
           style="fill:#666666;fill-opacity:1;fill-rule:evenodd;stroke:#000000;stroke-width:0.264999;stroke-linecap:round;stroke-linejoin:round;stroke-miterlimit:4;stroke-dasharray:none;stroke-dashoffset:0;stroke-opacity:1" />
        <rect
           style="fill:#ff6600;fill-opacity:1;fill-rule:evenodd;stroke:#000000;stroke-width:0.264999;stroke-linecap:round;stroke-linejoin:round;stroke-miterlimit:4;stroke-dasharray:none;stroke-dashoffset:0;stroke-opacity:1"
           id="rect921"
           width="4.2333336"
           height="0.79374969"
           x="9.7895832"
           y="7.6729178"
           ry="0.38033846" />
        <rect
           ry="0.38033849"
           y="7.6729178"
           x="17.727081"
           height="0.79374969"
           width="4.2333341"
           id="rect921-5"
           style="fill:#ff6600;fill-opacity:1;fill-rule:evenodd;stroke:#000000;stroke-width:0.264999;stroke-linecap:round;stroke-linejoin:round;stroke-miterlimit:4;stroke-dasharray:none;stroke-dashoffset:0;stroke-opacity:1" />
        <rect
           style="fill:#ff7f2a;fill-opacity:1;fill-rule:evenodd;stroke:#000000;stroke-width:0.264999;stroke-linecap:round;stroke-linejoin:round;stroke-miterlimit:4;stroke-dasharray:none;stroke-dashoffset:0;stroke-opacity:1"
           id="rect965"
           width="2.6458333"
           height="2.6458333"
           x="14.552083"
           y="18.520834"
           ry="0.38033855" />
        <path
           inkscape:transform-center-x="0.33072772"
           transform="rotate(90,12.767403,19.82117)"
           sodipodi:type="star"
           style="fill:#999999;fill-opacity:1;fill-rule:evenodd;stroke:#000000;stroke-width:0.264999;stroke-linecap:round;stroke-linejoin:round;stroke-miterlimit:4;stroke-dasharray:none;stroke-dashoffset:0;stroke-opacity:1"
           id="path967"
           sodipodi:sides="3"
           sodipodi:cx="12.767403"
           sodipodi:cy="19.821169"
           sodipodi:r1="1.3229167"
           sodipodi:r2="0.66145831"
           sodipodi:arg1="1.5707963"
           sodipodi:arg2="2.6179939"
           inkscape:flatsided="false"
           inkscape:rounded="0"
           inkscape:randomized="0"
           d="m 12.767403,21.144086 -0.57284,-0.992188 -0.57284,-0.992187 1.14568,0 1.145679,-1e-6 -0.57284,0.992188 z" />
        <path
           inkscape:transform-center-x="-0.33072951"
           transform="matrix(0,1,1,0,38.761473,0.92602727)"
           d="m 18.917723,-18.520833 -0.57284,-0.992188 -0.57284,-0.992187 1.14568,0 1.145679,0 -0.57284,0.992187 z"
           inkscape:randomized="0"
           inkscape:rounded="0"
           inkscape:flatsided="false"
           sodipodi:arg2="2.6179939"
           sodipodi:arg1="1.5707963"
           sodipodi:r2="0.66145831"
           sodipodi:r1="1.3229167"
           sodipodi:cy="-19.84375"
           sodipodi:cx="18.917723"
           sodipodi:sides="3"
           id="path967-0"
           style="fill:#999999;fill-opacity:1;fill-rule:evenodd;stroke:#000000;stroke-width:0.264999;stroke-linecap:round;stroke-linejoin:round;stroke-miterlimit:4;stroke-dasharray:none;stroke-dashoffset:0;stroke-opacity:1"
           sodipodi:type="star" />
        <rect
           ry="0.38033855"
           y="22.225004"
           x="14.552084"
           height="1.3229125"
           width="2.6458337"
           id="rect965-0"
           style="fill:#666666;fill-opacity:1;fill-rule:evenodd;stroke:#000000;stroke-width:0.264999;stroke-linecap:round;stroke-linejoin:round;stroke-miterlimit:4;stroke-dasharray:none;stroke-dashoffset:0;stroke-opacity:1" />
        <rect
           style="fill:#333333;fill-opacity:1;fill-rule:evenodd;stroke:#000000;stroke-width:0.264999;stroke-linecap:round;stroke-linejoin:round;stroke-miterlimit:4;stroke-dasharray:none;stroke-dashoffset:0;stroke-opacity:1"
           id="rect885-5-9"
           width="5.0270863"
           height="10.883001"
           x="0.85849953"
           y="17.991667"
           ry="0.52916664" />
      </g>
    </g>
  </g>
</svg>
